<?xml version="1.0" encoding="UTF-8" standalone="no"?>
<svg
   xmlns:dc="http://purl.org/dc/elements/1.1/"
   xmlns:cc="http://creativecommons.org/ns#"
   xmlns:rdf="http://www.w3.org/1999/02/22-rdf-syntax-ns#"
   xmlns:svg="http://www.w3.org/2000/svg"
   xmlns="http://www.w3.org/2000/svg"
   xmlns:sodipodi="http://sodipodi.sourceforge.net/DTD/sodipodi-0.dtd"
   xmlns:inkscape="http://www.inkscape.org/namespaces/inkscape"
   inkscape:export-ydpi="96"
   inkscape:export-xdpi="96"
   inkscape:export-filename="C:\Users\delos\Google Drive\Apuntes - Python\apuntes-python\img\logo.png"
   sodipodi:docname="logo.svg"
   inkscape:version="1.0 (4035a4fb49, 2020-05-01)"
   version="1.1"
   id="svg2"
   height="200"
   width="200">
  <defs
     id="defs4" />
  <sodipodi:namedview
     inkscape:snap-center="true"
     inkscape:snap-object-midpoints="true"
     id="base"
     pagecolor="#ffffff"
     bordercolor="#666666"
     borderopacity="1.0"
     inkscape:pageopacity="0.0"
     inkscape:pageshadow="2"
     inkscape:zoom="1.4"
     inkscape:cx="185.00226"
     inkscape:cy="104.12079"
     inkscape:document-units="px"
     inkscape:current-layer="layer1"
     showgrid="false"
     width="298mm"
     inkscape:window-width="1366"
     inkscape:window-height="705"
     inkscape:window-x="-8"
     inkscape:window-y="-8"
     inkscape:window-maximized="1"
     showguides="false"
     inkscape:guide-bbox="true"
     units="px"
     inkscape:document-rotation="0">
    <inkscape:grid
       type="xygrid"
       id="grid4131"
       empspacing="5"
       visible="true"
       enabled="true"
       snapvisiblegridlinesonly="true" />
  </sodipodi:namedview>
  <metadata
     id="metadata7">
    <rdf:RDF>
      <cc:Work
         rdf:about="">
        <dc:format>image/svg+xml</dc:format>
        <dc:type
           rdf:resource="http://purl.org/dc/dcmitype/StillImage" />
        <dc:title />
      </cc:Work>
    </rdf:RDF>
  </metadata>
  <g
     inkscape:label="Layer 1"
     inkscape:groupmode="layer"
     id="layer1"
     transform="translate(0,77.716913)">
    <flowRoot
       xml:space="preserve"
       id="flowRoot125"
       style="font-style:italic;font-variant:normal;font-weight:normal;font-stretch:normal;font-size:16px;line-height:1.25;font-family:'Times New Roman';-inkscape-font-specification:'Times New Roman, Italic';letter-spacing:0px;word-spacing:0px;fill:#000000;fill-opacity:1;stroke:none"><flowRegion
         id="flowRegion127"><rect
           id="rect129"
           width="86.873116"
           height="83.842659"
           x="129.29953"
           y="294.94925" /></flowRegion><flowPara
         id="flowPara131" /></flowRoot>
    <ellipse
       style="opacity:0.6;fill:#ff5555;stroke:none;stroke-linecap:round;stroke-linejoin:round;stroke-dasharray:1, 2"
       id="path37-1-4"
       cx="318.61218"
       cy="89.291672"
       rx="40.406101"
       ry="39.39595" />
    <g
       transform="rotate(-90,102.74332,18.650139)"
       id="g112">
      <path
         id="path37"
         style="opacity:0.6;fill:#2aff2a;stroke:none;stroke-linecap:round;stroke-linejoin:round;stroke-dasharray:1, 2"
         d="M 88.94644,-57.795172 A 40.406101,39.39595 0 0 0 48.540186,-18.398688 40.406101,39.39595 0 0 0 88.94644,20.9978 40.406101,39.39595 0 0 0 102.77652,18.616938 40.406101,39.39595 0 0 1 76.0148,-18.465094 40.406101,39.39595 0 0 1 102.59293,-55.480719 40.406101,39.39595 0 0 0 88.94644,-57.795172 Z" />
      <path
         d="m 105.09097,32.263428 a 39.39595,40.406101 0 0 1 -39.396481,40.40626 39.39595,40.406101 0 0 1 -39.396488,-40.40626 39.39595,40.406101 0 0 1 2.380862,-13.83008 39.39595,40.406101 0 0 0 37.082032,26.76172 39.39595,40.406101 0 0 0 37.015625,-26.57813 39.39595,40.406101 0 0 1 2.31445,13.64649 z"
         style="opacity:0.6;fill:#ff7f2a;stroke:none;stroke-linecap:round;stroke-linejoin:round;stroke-dasharray:1, 2"
         id="path37-6" />
      <path
         d="m 116.42301,16.302485 a 40.406101,39.39595 0 0 1 40.40625,39.396484 40.406101,39.39595 0 0 1 -40.40625,39.396488 40.406101,39.39595 0 0 1 -13.83008,-2.380862 40.406101,39.39595 0 0 0 26.76172,-37.082032 40.406101,39.39595 0 0 0 -26.57813,-37.015625 40.406101,39.39595 0 0 1 13.64649,-2.314453 z"
         style="opacity:0.6;fill:#ffcc00;stroke:none;stroke-linecap:round;stroke-linejoin:round;stroke-dasharray:1, 2"
         id="path37-17" />
      <path
         d="m 179.18863,4.786858 a 39.39595,40.406101 0 0 0 -39.39648,-40.40625 39.39595,40.406101 0 0 0 -39.39649,40.40625 39.39595,40.406101 0 0 0 2.38086,13.83008 39.39595,40.406101 0 0 1 37.08203,-26.76172 39.39595,40.406101 0 0 1 37.01563,26.57813 39.39595,40.406101 0 0 0 2.31445,-13.64649 z"
         style="opacity:0.6;fill:#80e5ff;stroke:none;stroke-linecap:round;stroke-linejoin:round;stroke-dasharray:1, 2"
         id="path37-2" />
    </g>
  </g>
</svg>
